<svg width="86" height="26" viewBox="0 0 86 26" fill="none" xmlns="http://www.w3.org/2000/svg">
<g filter="url(#filter0_i_7_741)">
<path d="M11.2927 19.32C10.8127 19.32 10.4593 19.2 10.2327 18.96C10.006 18.7067 9.81266 18.3333 9.65266 17.84C9.49266 17.3333 9.17932 15.9867 8.71266 13.8C8.40599 14.0667 7.90599 14.2133 7.21266 14.24L3.79266 14.36C2.97932 16.3467 2.37932 18.1133 1.99266 19.66C0.712656 19.2067 0.0726562 18.6933 0.0726562 18.12C0.0726562 17.8667 0.459323 16.92 1.23266 15.28C2.00599 13.64 2.87932 11.78 3.85266 9.7C4.83932 7.60667 5.50599 6.08667 5.85266 5.14L6.21266 4.16C6.10599 3.97333 5.84599 3.63333 5.43266 3.14C5.91266 2.98 6.32599 2.9 6.67266 2.9C7.03266 2.9 7.32599 2.92667 7.55266 2.98C7.79266 3.03333 7.99932 3.12667 8.17266 3.26C8.35932 3.38 8.51932 3.50667 8.65266 3.64C8.79932 3.77333 8.93266 3.97333 9.05266 4.24C9.17266 4.49333 9.27266 4.72667 9.35266 4.94C9.43266 5.14 9.51932 5.42667 9.61266 5.8C9.71932 6.17333 9.79932 6.5 9.85266 6.78C9.91932 7.04667 9.99932 7.42667 10.0927 7.92C10.1993 8.4 10.306 8.86667 10.4127 9.32C10.5193 9.77333 10.706 10.64 10.9727 11.92C11.2393 13.1867 11.446 14.14 11.5927 14.78C11.7527 15.4067 11.9727 16.1133 12.2527 16.9C12.546 17.6867 12.8527 18.3067 13.1727 18.76C12.3993 19.1333 11.7727 19.32 11.2927 19.32ZM7.13266 6.82C6.94599 7.24667 6.53266 8.16 5.89266 9.56C5.26599 10.9467 4.77932 12.0533 4.43266 12.88H8.53266C7.90599 10 7.43932 7.98 7.13266 6.82ZM42.8953 4.24C42.2953 4.24 41.7953 4.42667 41.3953 4.8C40.9953 5.16 40.7953 5.67333 40.7953 6.34C40.7953 7.00667 40.962 7.60667 41.2953 8.14C41.642 8.66 42.062 9.10667 42.5553 9.48C43.062 9.84 43.6086 10.2333 44.1953 10.66C44.7953 11.0867 45.342 11.4933 45.8353 11.88C46.342 12.2533 46.762 12.72 47.0953 13.28C47.442 13.84 47.6153 14.4333 47.6153 15.06C47.6153 16.3 47.1086 17.3533 46.0953 18.22C45.082 19.0733 43.7486 19.5 42.0953 19.5C40.4553 19.5 39.1553 19.1467 38.1953 18.44C37.2353 17.7333 36.7553 16.9333 36.7553 16.04C36.7553 15.1467 37.022 14.4533 37.5553 13.96C38.0886 13.4533 38.7753 13.2 39.6153 13.2C39.8553 13.2 40.082 13.2267 40.2953 13.28C39.882 13.8933 39.6753 14.56 39.6753 15.28C39.6753 15.9867 39.8953 16.6 40.3353 17.12C40.7753 17.6267 41.3553 17.88 42.0753 17.88C42.8086 17.88 43.422 17.6933 43.9153 17.32C44.4086 16.9333 44.6553 16.4467 44.6553 15.86C44.6553 15.26 44.4886 14.7333 44.1553 14.28C43.822 13.8267 43.4086 13.44 42.9153 13.12C42.422 12.7867 41.882 12.4133 41.2953 12C40.7086 11.5733 40.1686 11.1467 39.6753 10.72C39.182 10.2933 38.7686 9.75333 38.4353 9.1C38.102 8.43333 37.9353 7.70667 37.9353 6.92C37.9353 5.65333 38.3953 4.64667 39.3153 3.9C40.2353 3.14 41.4753 2.76 43.0353 2.76C44.5953 2.76 45.7753 3.11333 46.5753 3.82C47.3886 4.51333 47.7953 5.26 47.7953 6.06C47.7953 6.84667 47.542 7.51333 47.0353 8.06C46.5286 8.59333 45.842 8.86 44.9753 8.86C44.682 8.86 44.3953 8.83333 44.1153 8.78C44.7686 8.08667 45.0953 7.36 45.0953 6.6C45.0953 5.82667 44.882 5.24 44.4553 4.84C44.0286 4.44 43.5086 4.24 42.8953 4.24Z" fill="white"/>
<path d="M22.3233 7.46C23.1099 7.46 23.6699 7.70667 24.0033 8.2C24.3499 8.68 24.5233 9.34 24.5233 10.18C24.5233 11.0067 24.3899 12.1733 24.1233 13.68C23.8699 15.1867 23.7433 16.2867 23.7433 16.98C23.7433 17.66 23.8299 18.16 24.0033 18.48C24.1766 18.7867 24.4699 19.0533 24.8833 19.28C24.7099 19.2933 24.4633 19.3 24.1433 19.3C23.0233 19.3 22.2233 19.1267 21.7433 18.78C21.2766 18.4333 21.0433 17.8267 21.0433 16.96C21.0433 16.4667 21.1766 15.5067 21.4433 14.08C21.7099 12.64 21.8433 11.5667 21.8433 10.86C21.8433 9.98 21.5766 9.54 21.0433 9.54C20.7366 9.54 20.3899 9.72 20.0033 10.08C19.6166 10.44 19.2433 10.9333 18.8833 11.56C18.5233 12.1733 18.2233 12.9667 17.9833 13.94C17.7433 14.9133 17.6233 15.8867 17.6233 16.86C17.6233 17.82 17.6633 18.5333 17.7433 19C17.3166 19.0267 17.0366 19.04 16.9033 19.04C16.1433 19.04 15.5966 18.9067 15.2633 18.64C14.9299 18.3733 14.7633 17.9333 14.7633 17.32C14.7633 17.0533 14.9033 16.0267 15.1833 14.24C15.4633 12.4533 15.6033 11.0333 15.6033 9.98C15.6033 8.91333 15.4899 7.93333 15.2633 7.04C16.2366 7.34667 16.9166 7.78667 17.3033 8.36C17.6899 8.92 17.8833 9.56667 17.8833 10.3C17.8833 11.02 17.8033 11.86 17.6433 12.82C18.0833 11.3267 18.7766 10.06 19.7233 9.02C20.6699 7.98 21.5366 7.46 22.3233 7.46ZM36.0028 8.84C36.0028 9.30667 35.8028 9.94 35.4028 10.74C35.0028 11.5267 34.5161 12.4 33.9428 13.36C33.3695 14.32 32.7961 15.3467 32.2228 16.44C31.6495 17.52 31.1628 18.74 30.7628 20.1C30.3628 21.4733 30.1628 22.8133 30.1628 24.12C30.1628 24.72 30.2095 25.2933 30.3028 25.84C29.2228 25.64 28.4895 25.34 28.1028 24.94C27.7161 24.5533 27.5228 24.0933 27.5228 23.56C27.5228 22.8267 28.0561 21.38 29.1228 19.22C28.9228 18.3933 28.6761 17.1 28.3828 15.34C28.0895 13.5667 27.7895 12.0267 27.4828 10.72C27.1895 9.41333 26.8495 8.44 26.4628 7.8C27.1961 7.45333 27.7828 7.28 28.2228 7.28C28.6628 7.28 28.9961 7.38 29.2228 7.58C29.4495 7.78 29.6361 8.18 29.7828 8.78C29.9428 9.36667 30.0561 9.85333 30.1228 10.24C30.3095 11.52 30.4028 12.2333 30.4028 12.38C30.4028 12.5267 30.4561 13.1267 30.5628 14.18C30.6695 15.22 30.7495 15.9067 30.8028 16.24C33.1761 11.64 34.3628 8.56667 34.3628 7.02C35.4561 7.58 36.0028 8.18667 36.0028 8.84ZM52.9334 12.82C53.3734 11.3133 54.0601 10.0467 54.9934 9.02C55.9268 7.98 56.7934 7.46 57.5934 7.46C58.4068 7.46 58.9801 7.70667 59.3134 8.2C59.6601 8.68 59.8334 9.34 59.8334 10.18C59.8334 11.0067 59.7001 12.1733 59.4334 13.68C59.1801 15.1867 59.0534 16.2867 59.0534 16.98C59.0534 17.66 59.1401 18.16 59.3134 18.48C59.4868 18.7867 59.7801 19.0533 60.1934 19.28C60.0201 19.2933 59.7734 19.3 59.4534 19.3C58.3334 19.3 57.5334 19.1267 57.0534 18.78C56.5868 18.4333 56.3534 17.8267 56.3534 16.96C56.3534 16.4667 56.4868 15.5067 56.7534 14.08C57.0201 12.64 57.1534 11.5667 57.1534 10.86C57.1534 9.98 56.8868 9.54 56.3534 9.54C56.0334 9.54 55.6801 9.72 55.2934 10.08C54.9068 10.44 54.5334 10.9333 54.1734 11.56C53.8268 12.1733 53.5334 12.9667 53.2934 13.94C53.0534 14.9133 52.9334 15.8867 52.9334 16.86C52.9334 17.82 52.9734 18.5333 53.0534 19C52.6268 19.0267 52.3468 19.04 52.2134 19.04C51.4534 19.04 50.9068 18.9133 50.5734 18.66C50.2401 18.3933 50.0734 17.9733 50.0734 17.4C50.0734 16.8267 50.1868 15.7333 50.4134 14.12C51.1334 9.16 51.4934 5.39333 51.4934 2.82C51.4934 1.66 51.4134 0.879999 51.2534 0.479999C52.2534 0.746666 52.9334 1.15333 53.2934 1.7C53.6668 2.23333 53.8534 2.99333 53.8534 3.98C53.8534 4.64667 53.7201 6.04667 53.4534 8.18C53.2001 10.3133 53.0268 11.86 52.9334 12.82ZM68.4153 8.98C67.5486 8.98 66.7753 9.56667 66.0953 10.74C65.4153 11.9 65.0753 13.06 65.0753 14.22C65.0753 16.6467 65.702 17.86 66.9553 17.86C67.8486 17.86 68.5753 17.28 69.1353 16.12C69.6953 14.9467 69.9753 13.6333 69.9753 12.18C69.9753 10.0467 69.4553 8.98 68.4153 8.98ZM66.7153 7.18C66.862 7.18 66.9953 7.22667 67.1153 7.32C67.2486 7.4 67.3153 7.48667 67.3153 7.58C65.9686 8.51333 65.162 9.81333 64.8953 11.48C65.1753 10.7333 65.5153 10.0867 65.9153 9.54C66.3286 8.99333 66.7553 8.58 67.1953 8.3C68.0353 7.78 68.8553 7.52 69.6553 7.52C70.4553 7.52 71.1353 7.91333 71.6953 8.7C72.2553 9.48667 72.5353 10.54 72.5353 11.86C72.5353 13.34 72.2353 14.7 71.6353 15.94C70.9686 17.34 70.022 18.3067 68.7953 18.84C68.102 19.1467 67.342 19.3 66.5153 19.3C65.3553 19.3 64.342 18.8533 63.4753 17.96C62.622 17.0533 62.1953 15.76 62.1953 14.08C62.1953 12.3867 62.6086 10.9 63.4353 9.62C64.262 8.32667 65.3553 7.51333 66.7153 7.18ZM78.0391 11.58C78.5991 10.4333 79.2991 9.54 80.1391 8.9C80.9924 8.26 81.8324 7.94 82.6591 7.94C83.4857 7.94 84.1657 8.27333 84.6991 8.94C85.2457 9.59333 85.5191 10.5467 85.5191 11.8C85.5191 13.8 84.9724 15.5 83.8791 16.9C82.7857 18.3 81.4724 19 79.9391 19C79.3924 19 78.8391 18.8933 78.2791 18.68C79.5857 18.3733 80.6257 17.5267 81.3991 16.14C82.1724 14.7533 82.5591 13.3733 82.5591 12C82.5591 11.36 82.4391 10.84 82.1991 10.44C81.9724 10.04 81.6457 9.84 81.2191 9.84C80.4057 9.84 79.6857 10.3333 79.0591 11.32C78.4324 12.3067 77.9524 13.66 77.6191 15.38C77.2857 17.0867 77.1191 18.8667 77.1191 20.72C77.1191 22.5867 77.2524 24.2067 77.5191 25.58C76.4257 25.54 75.6124 25.36 75.0791 25.04C74.5591 24.7333 74.2991 24.14 74.2991 23.26C74.2991 22.94 74.4991 21.2533 74.8991 18.2C75.3124 15.1333 75.5191 12.7733 75.5191 11.12C75.5191 9.46667 75.4191 8.07333 75.2191 6.94C76.2857 7.20667 77.0191 7.7 77.4191 8.42C77.8324 9.14 78.0391 10.1933 78.0391 11.58Z" fill="white"/>
</g>
<defs>
<filter id="filter0_i_7_741" x="0.0726318" y="0.47998" width="85.4464" height="29.3601" filterUnits="userSpaceOnUse" color-interpolation-filters="sRGB">
<feFlood flood-opacity="0" result="BackgroundImageFix"/>
<feBlend mode="normal" in="SourceGraphic" in2="BackgroundImageFix" result="shape"/>
<feColorMatrix in="SourceAlpha" type="matrix" values="0 0 0 0 0 0 0 0 0 0 0 0 0 0 0 0 0 0 127 0" result="hardAlpha"/>
<feOffset dy="4"/>
<feGaussianBlur stdDeviation="2"/>
<feComposite in2="hardAlpha" operator="arithmetic" k2="-1" k3="1"/>
<feColorMatrix type="matrix" values="0 0 0 0 0 0 0 0 0 0 0 0 0 0 0 0 0 0 0.25 0"/>
<feBlend mode="normal" in2="shape" result="effect1_innerShadow_7_741"/>
</filter>
</defs>
</svg>
